<svg width="32" height="16" viewBox="0 0 32 16" fill="none" xmlns="http://www.w3.org/2000/svg">
<path d="M29.0638 3.02358L29.0661 3.02603C29.6736 3.67156 30.1594 4.44263 30.4925 5.29665C30.8256 6.15073 30.9985 7.06887 31 7.99787C31.0014 8.92689 30.8314 9.84567 30.501 10.701C30.1705 11.5563 29.6871 12.3291 29.0815 12.9769C28.4761 13.6245 27.7607 14.1341 26.9785 14.4798C26.1964 14.8255 25.3609 15.0015 24.5192 15C23.6774 14.9984 22.8424 14.8193 22.0615 14.4707C21.2803 14.122 20.5665 13.6098 19.9631 12.9599L19.9607 12.9574L16.7214 9.49235L15.9909 8.71096L15.2604 9.49237L12.0212 12.9574C11.1115 13.9305 9.96083 14.5847 8.71892 14.8489C7.47766 15.113 6.19025 14.9782 5.0163 14.4581C3.84136 13.9375 2.82612 13.0509 2.10701 11.8997C1.38755 10.7479 1 9.38725 1 7.99029C1 6.59333 1.38755 5.23269 2.10701 4.08091C2.82612 2.9297 3.84136 2.04309 5.0163 1.5225C6.19025 1.00235 7.47766 0.867533 8.71892 1.13164C9.96083 1.39588 11.1115 2.05011 12.0212 3.02321L15.2607 6.4885L15.9912 7.26989L16.7217 6.48852L19.961 3.02359L19.2306 2.34066L19.9611 3.02358C21.1804 1.71933 22.8191 1.00043 24.5124 1.00043C26.2057 1.00043 27.8445 1.71933 29.0638 3.02358ZM11.9731 3.27193L11.9731 3.27192C11.0919 2.32939 9.96088 1.67905 8.71881 1.41478C7.47608 1.15037 6.18879 1.28682 5.02287 1.80341C3.85796 2.31956 2.87329 3.18862 2.18534 4.28997C1.49774 5.39075 1.13427 6.6784 1.13427 7.99058C1.13427 9.30275 1.49774 10.5904 2.18534 11.6912C2.87329 12.7925 3.85796 13.6616 5.02287 14.1777C6.18879 14.6943 7.47608 14.8308 8.71881 14.5664C9.96086 14.3021 11.0919 13.6518 11.973 12.7093C11.973 12.7093 11.9731 12.7092 11.9731 12.7092L15.6546 8.77178L15.9241 8.48349V8.08881V7.89291V7.49828L15.6546 7.21L11.9731 3.27193ZM20.0088 12.7092L20.7393 12.0263L20.0088 12.7092C21.191 13.9737 22.8092 14.6979 24.5121 14.6979C26.2149 14.6979 27.8332 13.9737 29.0153 12.7092C29.6002 12.0837 30.0608 11.3446 30.3741 10.5358C30.6872 9.72712 30.8477 8.86243 30.8478 7.9906C30.8478 7.11876 30.6874 6.25406 30.3742 5.44531C30.0611 4.6365 29.6004 3.89741 29.0156 3.27181C28.4307 2.64607 27.7326 2.14582 26.9593 1.80314C26.1857 1.46037 25.354 1.2829 24.5123 1.28287C23.6706 1.28283 22.8389 1.46025 22.0653 1.80296C21.292 2.14558 20.5938 2.64578 20.0088 3.27147L20.0088 3.2715L16.3273 7.20957L16.0578 7.49785V7.89248V8.08824V8.48287L16.3273 8.77115L20.0088 12.7092Z" fill="black" stroke="#F77F00" stroke-width="2"/>
</svg>
